<mxfile host="Electron" modified="2024-02-20T11:01:15.898Z" agent="Mozilla/5.0 (Windows NT 10.0; Win64; x64) AppleWebKit/537.36 (KHTML, like Gecko) draw.io/22.1.18 Chrome/120.0.6099.199 Electron/28.1.2 Safari/537.36" etag="_XlrZPpY9lg-7YgyMoai" version="22.1.18" type="device">
  <diagram name="Page-1" id="541V8Yv5ErWwA4qg_p3x">
    <mxGraphModel dx="2284" dy="844" grid="1" gridSize="10" guides="1" tooltips="1" connect="1" arrows="1" fold="1" page="1" pageScale="1" pageWidth="850" pageHeight="1100" math="0" shadow="0">
      <root>
        <mxCell id="0" />
        <mxCell id="1" parent="0" />
        <mxCell id="0T_hG7NRy0bpAVzyxG1r-1" value="" style="rounded=0;whiteSpace=wrap;html=1;" vertex="1" parent="1">
          <mxGeometry x="-70" y="80" width="1130" height="760" as="geometry" />
        </mxCell>
        <mxCell id="0T_hG7NRy0bpAVzyxG1r-2" value="APB Master/Bridge" style="rounded=1;whiteSpace=wrap;html=1;fillColor=#d5e8d4;strokeColor=#82b366;" vertex="1" parent="1">
          <mxGeometry x="180" y="170" width="130" height="450" as="geometry" />
        </mxCell>
        <mxCell id="0T_hG7NRy0bpAVzyxG1r-3" value="APB Slave" style="rounded=1;whiteSpace=wrap;html=1;fillColor=#d5e8d4;strokeColor=#82b366;" vertex="1" parent="1">
          <mxGeometry x="770" y="170" width="130" height="450" as="geometry" />
        </mxCell>
        <mxCell id="0T_hG7NRy0bpAVzyxG1r-4" value="" style="endArrow=classic;html=1;rounded=0;exitX=1;exitY=0.126;exitDx=0;exitDy=0;exitPerimeter=0;entryX=0.007;entryY=0.132;entryDx=0;entryDy=0;entryPerimeter=0;" edge="1" parent="1" source="0T_hG7NRy0bpAVzyxG1r-2" target="0T_hG7NRy0bpAVzyxG1r-3">
          <mxGeometry width="50" height="50" relative="1" as="geometry">
            <mxPoint x="400" y="460" as="sourcePoint" />
            <mxPoint x="450" y="410" as="targetPoint" />
          </mxGeometry>
        </mxCell>
        <mxCell id="0T_hG7NRy0bpAVzyxG1r-5" value="PENABLE" style="edgeLabel;html=1;align=center;verticalAlign=middle;resizable=0;points=[];fontSize=14;" vertex="1" connectable="0" parent="0T_hG7NRy0bpAVzyxG1r-4">
          <mxGeometry x="-0.1706" y="-3" relative="1" as="geometry">
            <mxPoint as="offset" />
          </mxGeometry>
        </mxCell>
        <mxCell id="0T_hG7NRy0bpAVzyxG1r-6" value="" style="endArrow=classic;html=1;rounded=0;exitX=1;exitY=0.18;exitDx=0;exitDy=0;exitPerimeter=0;entryX=0;entryY=0.182;entryDx=0;entryDy=0;entryPerimeter=0;" edge="1" parent="1" source="0T_hG7NRy0bpAVzyxG1r-2" target="0T_hG7NRy0bpAVzyxG1r-3">
          <mxGeometry width="50" height="50" relative="1" as="geometry">
            <mxPoint x="330" y="260" as="sourcePoint" />
            <mxPoint x="781" y="263" as="targetPoint" />
          </mxGeometry>
        </mxCell>
        <mxCell id="0T_hG7NRy0bpAVzyxG1r-7" value="PSELx" style="edgeLabel;html=1;align=center;verticalAlign=middle;resizable=0;points=[];fontSize=14;" vertex="1" connectable="0" parent="0T_hG7NRy0bpAVzyxG1r-6">
          <mxGeometry x="-0.1706" y="-3" relative="1" as="geometry">
            <mxPoint as="offset" />
          </mxGeometry>
        </mxCell>
        <mxCell id="0T_hG7NRy0bpAVzyxG1r-8" value="" style="shape=flexArrow;endArrow=classic;html=1;rounded=0;exitX=1;exitY=0.264;exitDx=0;exitDy=0;exitPerimeter=0;entryX=-0.007;entryY=0.264;entryDx=0;entryDy=0;entryPerimeter=0;fillColor=#f8cecc;strokeColor=#b85450;" edge="1" parent="1" source="0T_hG7NRy0bpAVzyxG1r-2" target="0T_hG7NRy0bpAVzyxG1r-3">
          <mxGeometry width="50" height="50" relative="1" as="geometry">
            <mxPoint x="400" y="460" as="sourcePoint" />
            <mxPoint x="450" y="410" as="targetPoint" />
          </mxGeometry>
        </mxCell>
        <mxCell id="0T_hG7NRy0bpAVzyxG1r-9" value="PADDR" style="edgeLabel;html=1;align=center;verticalAlign=middle;resizable=0;points=[];rotation=0;fontSize=16;" vertex="1" connectable="0" parent="0T_hG7NRy0bpAVzyxG1r-8">
          <mxGeometry x="-0.0379" y="-1" relative="1" as="geometry">
            <mxPoint x="-16" y="-1" as="offset" />
          </mxGeometry>
        </mxCell>
        <mxCell id="0T_hG7NRy0bpAVzyxG1r-10" value="" style="shape=flexArrow;endArrow=classic;html=1;rounded=0;exitX=1;exitY=0.362;exitDx=0;exitDy=0;exitPerimeter=0;entryX=0;entryY=0.362;entryDx=0;entryDy=0;entryPerimeter=0;fillColor=#f8cecc;strokeColor=#b85450;" edge="1" parent="1" source="0T_hG7NRy0bpAVzyxG1r-2" target="0T_hG7NRy0bpAVzyxG1r-3">
          <mxGeometry width="50" height="50" relative="1" as="geometry">
            <mxPoint x="330" y="312" as="sourcePoint" />
            <mxPoint x="779" y="312" as="targetPoint" />
          </mxGeometry>
        </mxCell>
        <mxCell id="0T_hG7NRy0bpAVzyxG1r-11" value="PWDATA" style="edgeLabel;html=1;align=center;verticalAlign=middle;resizable=0;points=[];rotation=0;fontSize=16;" vertex="1" connectable="0" parent="0T_hG7NRy0bpAVzyxG1r-10">
          <mxGeometry x="-0.0379" y="-1" relative="1" as="geometry">
            <mxPoint x="-16" y="-1" as="offset" />
          </mxGeometry>
        </mxCell>
        <mxCell id="0T_hG7NRy0bpAVzyxG1r-12" value="" style="endArrow=classic;html=1;rounded=0;exitX=1;exitY=0.468;exitDx=0;exitDy=0;exitPerimeter=0;entryX=0;entryY=0.468;entryDx=0;entryDy=0;entryPerimeter=0;" edge="1" parent="1" source="0T_hG7NRy0bpAVzyxG1r-2" target="0T_hG7NRy0bpAVzyxG1r-3">
          <mxGeometry width="50" height="50" relative="1" as="geometry">
            <mxPoint x="320" y="400" as="sourcePoint" />
            <mxPoint x="771" y="403" as="targetPoint" />
          </mxGeometry>
        </mxCell>
        <mxCell id="0T_hG7NRy0bpAVzyxG1r-13" value="PWRITE" style="edgeLabel;html=1;align=center;verticalAlign=middle;resizable=0;points=[];fontSize=14;" vertex="1" connectable="0" parent="0T_hG7NRy0bpAVzyxG1r-12">
          <mxGeometry x="-0.1706" y="-3" relative="1" as="geometry">
            <mxPoint as="offset" />
          </mxGeometry>
        </mxCell>
        <mxCell id="0T_hG7NRy0bpAVzyxG1r-14" value="" style="shape=flexArrow;endArrow=classic;html=1;rounded=0;exitX=0;exitY=0.596;exitDx=0;exitDy=0;exitPerimeter=0;entryX=1;entryY=0.596;entryDx=0;entryDy=0;entryPerimeter=0;fillColor=#f8cecc;strokeColor=#b85450;" edge="1" parent="1" source="0T_hG7NRy0bpAVzyxG1r-3" target="0T_hG7NRy0bpAVzyxG1r-2">
          <mxGeometry width="50" height="50" relative="1" as="geometry">
            <mxPoint x="330" y="530" as="sourcePoint" />
            <mxPoint x="780" y="530" as="targetPoint" />
          </mxGeometry>
        </mxCell>
        <mxCell id="0T_hG7NRy0bpAVzyxG1r-15" value="PRDATA" style="edgeLabel;html=1;align=center;verticalAlign=middle;resizable=0;points=[];rotation=0;fontSize=16;" vertex="1" connectable="0" parent="0T_hG7NRy0bpAVzyxG1r-14">
          <mxGeometry x="-0.0379" y="-1" relative="1" as="geometry">
            <mxPoint x="-16" y="-1" as="offset" />
          </mxGeometry>
        </mxCell>
        <mxCell id="0T_hG7NRy0bpAVzyxG1r-16" value="" style="endArrow=classic;html=1;rounded=0;exitX=0;exitY=0.75;exitDx=0;exitDy=0;entryX=1;entryY=0.75;entryDx=0;entryDy=0;" edge="1" parent="1" source="0T_hG7NRy0bpAVzyxG1r-3" target="0T_hG7NRy0bpAVzyxG1r-2">
          <mxGeometry width="50" height="50" relative="1" as="geometry">
            <mxPoint x="510" y="570" as="sourcePoint" />
            <mxPoint x="560" y="520" as="targetPoint" />
          </mxGeometry>
        </mxCell>
        <mxCell id="0T_hG7NRy0bpAVzyxG1r-17" value="&lt;font style=&quot;font-size: 13px;&quot;&gt;PREADY&lt;/font&gt;" style="edgeLabel;html=1;align=center;verticalAlign=middle;resizable=0;points=[];" vertex="1" connectable="0" parent="0T_hG7NRy0bpAVzyxG1r-16">
          <mxGeometry x="0.1156" y="2" relative="1" as="geometry">
            <mxPoint as="offset" />
          </mxGeometry>
        </mxCell>
        <mxCell id="0T_hG7NRy0bpAVzyxG1r-19" value="PCLK" style="text;html=1;align=center;verticalAlign=middle;resizable=0;points=[];autosize=1;strokeColor=#6c8ebf;fillColor=#dae8fc;" vertex="1" parent="1">
          <mxGeometry x="90" y="572" width="50" height="30" as="geometry" />
        </mxCell>
        <mxCell id="0T_hG7NRy0bpAVzyxG1r-23" value="" style="endArrow=classic;html=1;rounded=0;entryX=0;entryY=0.924;entryDx=0;entryDy=0;entryPerimeter=0;exitX=1.08;exitY=0.5;exitDx=0;exitDy=0;exitPerimeter=0;" edge="1" parent="1" source="0T_hG7NRy0bpAVzyxG1r-19" target="0T_hG7NRy0bpAVzyxG1r-2">
          <mxGeometry width="50" height="50" relative="1" as="geometry">
            <mxPoint x="400" y="460" as="sourcePoint" />
            <mxPoint x="450" y="410" as="targetPoint" />
          </mxGeometry>
        </mxCell>
        <mxCell id="0T_hG7NRy0bpAVzyxG1r-25" style="edgeStyle=orthogonalEdgeStyle;rounded=0;orthogonalLoop=1;jettySize=auto;html=1;entryX=0;entryY=0.927;entryDx=0;entryDy=0;entryPerimeter=0;" edge="1" parent="1" source="0T_hG7NRy0bpAVzyxG1r-19" target="0T_hG7NRy0bpAVzyxG1r-3">
          <mxGeometry relative="1" as="geometry">
            <Array as="points">
              <mxPoint x="115" y="630" />
              <mxPoint x="320" y="630" />
              <mxPoint x="320" y="587" />
            </Array>
          </mxGeometry>
        </mxCell>
        <mxCell id="0T_hG7NRy0bpAVzyxG1r-27" value="" style="shape=flexArrow;endArrow=classic;html=1;rounded=0;entryX=0.008;entryY=0.133;entryDx=0;entryDy=0;entryPerimeter=0;" edge="1" parent="1" target="0T_hG7NRy0bpAVzyxG1r-2">
          <mxGeometry width="50" height="50" relative="1" as="geometry">
            <mxPoint x="110" y="230" as="sourcePoint" />
            <mxPoint x="70" y="210" as="targetPoint" />
          </mxGeometry>
        </mxCell>
        <mxCell id="0T_hG7NRy0bpAVzyxG1r-28" value="System bus" style="text;html=1;align=center;verticalAlign=middle;resizable=0;points=[];autosize=1;strokeColor=none;fillColor=none;" vertex="1" parent="1">
          <mxGeometry x="80" y="200" width="90" height="30" as="geometry" />
        </mxCell>
      </root>
    </mxGraphModel>
  </diagram>
</mxfile>
